<mxfile host="app.diagrams.net" modified="2023-03-26T14:45:55.046Z" agent="Mozilla/5.0 (X11; Linux x86_64; rv:102.0) Gecko/20100101 Firefox/102.0" etag="t898mL8Yq9g0F5Yd7WTs" version="21.1.1" type="device">
  <diagram name="PÃ¡gina-1" id="n5b4vFz67uD1NpzPRLSt">
    <mxGraphModel dx="1195" dy="661" grid="1" gridSize="10" guides="1" tooltips="1" connect="1" arrows="1" fold="1" page="1" pageScale="1" pageWidth="1169" pageHeight="827" math="0" shadow="0">
      <root>
        <mxCell id="0" />
        <mxCell id="1" parent="0" />
        <mxCell id="7TNcU90nIlYnWCZBwueu-1" value="" style="rounded=0;whiteSpace=wrap;html=1;" parent="1" vertex="1">
          <mxGeometry x="160" y="240" width="120" height="60" as="geometry" />
        </mxCell>
        <mxCell id="7TNcU90nIlYnWCZBwueu-2" value="" style="rounded=0;whiteSpace=wrap;html=1;" parent="1" vertex="1">
          <mxGeometry x="280" y="240" width="120" height="60" as="geometry" />
        </mxCell>
        <mxCell id="7TNcU90nIlYnWCZBwueu-3" value="" style="rounded=0;whiteSpace=wrap;html=1;" parent="1" vertex="1">
          <mxGeometry x="400" y="240" width="120" height="60" as="geometry" />
        </mxCell>
        <mxCell id="7TNcU90nIlYnWCZBwueu-5" value="" style="rounded=0;whiteSpace=wrap;html=1;" parent="1" vertex="1">
          <mxGeometry x="520" y="240" width="80" height="60" as="geometry" />
        </mxCell>
        <mxCell id="7TNcU90nIlYnWCZBwueu-7" value="" style="rounded=0;whiteSpace=wrap;html=1;fillColor=#f5f5f5;fontColor=#333333;strokeColor=#666666;" parent="1" vertex="1">
          <mxGeometry x="600" y="240" width="40" height="60" as="geometry" />
        </mxCell>
        <mxCell id="7TNcU90nIlYnWCZBwueu-8" value="" style="endArrow=classic;startArrow=classic;html=1;rounded=0;" parent="1" edge="1">
          <mxGeometry width="50" height="50" relative="1" as="geometry">
            <mxPoint x="160" y="200" as="sourcePoint" />
            <mxPoint x="600" y="200" as="targetPoint" />
          </mxGeometry>
        </mxCell>
        <mxCell id="7TNcU90nIlYnWCZBwueu-9" value="60" style="edgeLabel;html=1;align=center;verticalAlign=middle;resizable=0;points=[];fontSize=18;" parent="7TNcU90nIlYnWCZBwueu-8" vertex="1" connectable="0">
          <mxGeometry x="0.4556" y="1" relative="1" as="geometry">
            <mxPoint x="-107" y="-19" as="offset" />
          </mxGeometry>
        </mxCell>
        <mxCell id="7TNcU90nIlYnWCZBwueu-10" value="" style="endArrow=classic;startArrow=classic;html=1;rounded=0;" parent="1" edge="1">
          <mxGeometry width="50" height="50" relative="1" as="geometry">
            <mxPoint x="160" y="320" as="sourcePoint" />
            <mxPoint x="280" y="320" as="targetPoint" />
          </mxGeometry>
        </mxCell>
        <mxCell id="7TNcU90nIlYnWCZBwueu-11" value="16" style="edgeLabel;html=1;align=center;verticalAlign=middle;resizable=0;points=[];fontSize=18;" parent="7TNcU90nIlYnWCZBwueu-10" vertex="1" connectable="0">
          <mxGeometry x="0.4556" y="1" relative="1" as="geometry">
            <mxPoint x="-27" y="21" as="offset" />
          </mxGeometry>
        </mxCell>
        <mxCell id="7TNcU90nIlYnWCZBwueu-14" value="" style="endArrow=classic;startArrow=classic;html=1;rounded=0;" parent="1" edge="1">
          <mxGeometry width="50" height="50" relative="1" as="geometry">
            <mxPoint x="280" y="320" as="sourcePoint" />
            <mxPoint x="400" y="320" as="targetPoint" />
          </mxGeometry>
        </mxCell>
        <mxCell id="7TNcU90nIlYnWCZBwueu-15" value="16" style="edgeLabel;html=1;align=center;verticalAlign=middle;resizable=0;points=[];fontSize=18;" parent="7TNcU90nIlYnWCZBwueu-14" vertex="1" connectable="0">
          <mxGeometry x="0.4556" y="1" relative="1" as="geometry">
            <mxPoint x="-27" y="21" as="offset" />
          </mxGeometry>
        </mxCell>
        <mxCell id="7TNcU90nIlYnWCZBwueu-16" value="" style="endArrow=classic;startArrow=classic;html=1;rounded=0;" parent="1" edge="1">
          <mxGeometry width="50" height="50" relative="1" as="geometry">
            <mxPoint x="400" y="320" as="sourcePoint" />
            <mxPoint x="520" y="320" as="targetPoint" />
          </mxGeometry>
        </mxCell>
        <mxCell id="7TNcU90nIlYnWCZBwueu-17" value="16" style="edgeLabel;html=1;align=center;verticalAlign=middle;resizable=0;points=[];fontSize=18;" parent="7TNcU90nIlYnWCZBwueu-16" vertex="1" connectable="0">
          <mxGeometry x="0.4556" y="1" relative="1" as="geometry">
            <mxPoint x="-27" y="21" as="offset" />
          </mxGeometry>
        </mxCell>
        <mxCell id="7TNcU90nIlYnWCZBwueu-18" value="" style="endArrow=classic;startArrow=classic;html=1;rounded=0;" parent="1" edge="1">
          <mxGeometry width="50" height="50" relative="1" as="geometry">
            <mxPoint x="520" y="320" as="sourcePoint" />
            <mxPoint x="640" y="320" as="targetPoint" />
          </mxGeometry>
        </mxCell>
        <mxCell id="7TNcU90nIlYnWCZBwueu-19" value="16" style="edgeLabel;html=1;align=center;verticalAlign=middle;resizable=0;points=[];fontSize=18;" parent="7TNcU90nIlYnWCZBwueu-18" vertex="1" connectable="0">
          <mxGeometry x="0.4556" y="1" relative="1" as="geometry">
            <mxPoint x="-27" y="21" as="offset" />
          </mxGeometry>
        </mxCell>
      </root>
    </mxGraphModel>
  </diagram>
</mxfile>
